<?xml version="1.0" encoding="utf-8"?>
<!-- Generator: Adobe Illustrator 27.0.0, SVG Export Plug-In . SVG Version: 6.00 Build 0)  -->
<svg version="1.1" id="Layer_1" xmlns="http://www.w3.org/2000/svg" xmlns:xlink="http://www.w3.org/1999/xlink" x="0px" y="0px"
	 viewBox="0 0 56.8 56.7" style="enable-background:new 0 0 56.8 56.7;" xml:space="preserve">
<g>
	<g>
		<g>
			<path d="M55.5,24.3c-1.5,1.7-3.8,2.1-5.8,1.4c-0.7-0.3-1.6-0.1-2.1,0.4L35.8,37.9c-0.6,0.6-0.7,1.4-0.4,2.1
				c0.8,2,0.3,4.3-1.4,5.8c-2.1,1.9-5.4,1.6-7.4-0.4L11.2,30.1c-2-2-2.3-5.3-0.4-7.4c1.5-1.7,3.9-2.2,5.8-1.4
				c0.7,0.3,1.6,0.1,2.1-0.4L30.4,9.2c0.6-0.6,0.7-1.4,0.5-2.1c-0.8-2-0.3-4.3,1.4-5.8c2.1-1.9,5.4-1.6,7.4,0.4L55,17
				C57.1,18.9,57.4,22.2,55.5,24.3z"/>
			<path d="M20.2,41l-4.5-4.5c-0.3-0.3-0.7-0.5-1.2-0.4c-0.4,0-0.8,0.3-1.1,0.6L0.3,54.3c-0.5,0.6-0.4,1.4,0.1,2s1.4,0.6,2,0.1
				L20,43.3c0.3-0.3,0.6-0.7,0.6-1.1C20.6,41.8,20.5,41.3,20.2,41z"/>
		</g>
	</g>
</g>
</svg>
